<svg width="20" height="21" viewBox="0 0 20 21" fill="none" xmlns="http://www.w3.org/2000/svg">
<path d="M19.0337 19.9376C19.5511 20.4478 20.3498 19.6604 19.8324 19.1613L15.6139 14.9914C17.0937 13.3772 17.9116 11.2782 17.9088 9.1025C17.9088 4.23389 13.8928 0.274689 8.95438 0.274689C4.01597 0.274689 0 4.23389 0 9.1025C0 13.9711 4.01597 17.9303 8.95438 17.9303C11.1817 17.9303 13.2403 17.1207 14.8152 15.7788L19.0337 19.9376ZM1.1238 9.1025C1.1238 4.84386 4.6448 1.38371 8.95326 1.38371C13.273 1.38371 16.7827 4.84386 16.7827 9.1025C16.7827 13.3611 13.273 16.8213 8.95326 16.8213C4.6448 16.8213 1.1238 13.3611 1.1238 9.1025Z" fill="white"/>
</svg>
