<svg width="22" height="22" viewBox="0 0 22 22" fill="none" xmlns="http://www.w3.org/2000/svg">
<g clip-path="url(#clip0_68_304)">
<path d="M16.2189 11C16.2163 10.1783 16.1283 9.35905 15.9561 8.55556H18.1561C18.0428 8.2204 17.906 7.89367 17.7467 7.57778H15.6995C15.3146 6.29204 14.7177 5.07961 13.9333 3.99056C13.4322 3.77985 12.9097 3.62412 12.375 3.52611C13.4495 4.68065 14.2606 6.0547 14.7522 7.55334H11.4583V3.42223H10.5417V7.55945H7.24778C7.74038 6.0581 8.55362 4.68185 9.63112 3.52611C9.0987 3.62249 8.57827 3.77616 8.07889 3.98445C7.29145 5.06894 6.69043 6.27719 6.30056 7.55945H4.24112C4.07891 7.8811 3.94003 8.21399 3.82556 8.55556H6.04389C5.87174 9.35905 5.78367 10.1783 5.78112 11C5.78281 11.8988 5.8853 12.7946 6.08667 13.6706H3.92334C4.04977 14.0131 4.2009 14.346 4.37556 14.6667H6.34945C6.72358 15.8374 7.27822 16.9426 7.99334 17.9422C8.50543 18.1619 9.0404 18.3238 9.58834 18.425C8.59096 17.3371 7.82391 16.0587 7.33334 14.6667H10.5478V18.5411H11.4645V14.6667H14.6667C14.1744 16.0593 13.4053 17.3377 12.4056 18.425C12.9561 18.3203 13.4931 18.1543 14.0067 17.93C14.7207 16.9341 15.2753 15.8332 15.6506 14.6667H17.6061C17.78 14.3519 17.9311 14.0252 18.0583 13.6889H15.8889C16.0999 12.8079 16.2106 11.9059 16.2189 11ZM10.5417 13.6706H7.03389C6.60365 11.9887 6.58479 10.2279 6.97889 8.53723H10.5417V13.6706ZM14.9661 13.6706H11.4583V8.55556H15.0211C15.1967 9.3584 15.2827 10.1782 15.2778 11C15.2828 11.8995 15.1781 12.7963 14.9661 13.6706Z" fill="white"/>
<path d="M11 1.22223C9.06609 1.22223 7.17566 1.79569 5.56771 2.87008C3.95976 3.94448 2.70652 5.47156 1.96646 7.25821C1.2264 9.04487 1.03277 11.0109 1.41005 12.9076C1.78733 14.8043 2.71857 16.5465 4.08602 17.9139C5.45346 19.2814 7.1957 20.2126 9.0924 20.5899C10.9891 20.9672 12.9551 20.7736 14.7417 20.0335C16.5284 19.2934 18.0555 18.0402 19.1299 16.4323C20.2043 14.8243 20.7777 12.9339 20.7777 11C20.7777 8.40678 19.7476 5.91976 17.9139 4.08607C16.0802 2.25239 13.5932 1.22223 11 1.22223ZM11 19.5556C9.30782 19.5556 7.65369 19.0538 6.24674 18.1137C4.83978 17.1736 3.7432 15.8374 3.09565 14.2741C2.4481 12.7108 2.27867 10.9905 2.60879 9.3309C2.93891 7.67129 3.75374 6.14683 4.95026 4.95032C6.14677 3.7538 7.67123 2.93896 9.33085 2.60884C10.9905 2.27873 12.7107 2.44815 14.274 3.0957C15.8373 3.74325 17.1735 4.83984 18.1136 6.24679C19.0537 7.65375 19.5555 9.30788 19.5555 11C19.5555 13.2691 18.6541 15.4452 17.0496 17.0497C15.4452 18.6542 13.269 19.5556 11 19.5556Z" fill="white"/>
</g>
<defs>
<clipPath id="clip0_68_304">
<rect width="22" height="22" fill="white"/>
</clipPath>
</defs>
</svg>
