<svg width="20" height="21" viewBox="0 0 20 21" fill="none" xmlns="http://www.w3.org/2000/svg">
<path d="M1.63445 15.6182L1.6343 15.6183C1.04904 16.0869 0.861111 16.4855 0.861111 16.7983V19.0014V19.2514H1.11111H18.8889H19.1389V19.0014V16.7983C19.1389 16.4861 18.9511 16.0864 18.3649 15.6182C17.7908 15.1587 16.9505 14.7322 15.9535 14.3685L15.9534 14.3685C13.96 13.6415 11.5605 13.2436 10 13.2436C8.43951 13.2436 6.04002 13.6415 4.04656 14.3685L4.04655 14.3685C3.0494 14.7323 2.20913 15.1588 1.63445 15.6182ZM10 10.4389C12.5916 10.4389 14.6944 8.35713 14.6944 5.78256C14.6944 3.20798 12.5916 1.12626 10 1.12626C7.40841 1.12626 5.30556 3.20798 5.30556 5.78256C5.30556 8.35713 7.40841 10.4389 10 10.4389ZM15.3056 5.78256C15.3056 8.68556 12.9334 11.0404 10 11.0404C7.06659 11.0404 4.69444 8.68556 4.69444 5.78256C4.69444 2.87956 7.06659 0.524689 10 0.524689C12.9334 0.524689 15.3056 2.87956 15.3056 5.78256ZM0.25 16.7983C0.25 16.2244 0.599209 15.6713 1.24935 15.1514C1.89644 14.6338 2.80551 14.1797 3.83421 13.8045C5.89137 13.0541 8.36243 12.642 10 12.642C11.6379 12.642 14.1089 13.0541 16.166 13.8045C17.1947 14.1797 18.1037 14.6338 18.7507 15.1514C19.4008 15.6713 19.75 16.2244 19.75 16.7983V19.853H0.25V16.7983Z" fill="white" stroke="white" stroke-width="0.5"/>
</svg>
