<svg width="22" height="22" viewBox="0 0 22 22" fill="none" xmlns="http://www.w3.org/2000/svg">
<path d="M1 7.47104H21L19.9563 18.8488C19.8998 19.4646 19.6132 20.0372 19.1528 20.4543C18.6923 20.8714 18.0912 21.1028 17.4675 21.103H4.5325C3.9088 21.1028 3.30771 20.8714 2.84725 20.4543C2.38678 20.0372 2.1002 19.4646 2.04375 18.8488L1 7.47104Z" stroke="white" stroke-linejoin="round"/>
<path d="M6 9.94958V6.23177C6 4.91707 6.52678 3.65622 7.46447 2.72658C8.40215 1.79695 9.67392 1.27469 11 1.27469C12.3261 1.27469 13.5979 1.79695 14.5355 2.72658C15.4732 3.65622 16 4.91707 16 6.23177V9.94958" stroke="white" stroke-linecap="round"/>
</svg>
