<svg width="24" height="31" viewBox="0 0 24 31" fill="none" xmlns="http://www.w3.org/2000/svg">
<path d="M23.3811 9.66322C23.3179 8.72848 23.2169 8.32427 22.7242 7.56638C21.6884 5.9748 19.2505 3.04427 17.659 1.64217C17.0526 1.11164 16.7495 0.947429 15.8148 0.770586C13.8569 0.404271 10.1432 0.404271 8.18528 0.770586C7.25054 0.934797 6.94738 1.11164 6.34106 1.64217C4.73685 3.04427 2.29896 5.9748 1.2758 7.56638C0.78317 8.32427 0.682118 8.74111 0.61896 9.66322C0.442118 12.1769 0.442118 18.1264 0.61896 20.6401C0.682118 21.5748 0.78317 21.979 1.2758 22.7369C2.31159 24.3285 4.74949 27.259 6.34106 28.6611C6.94738 29.1916 7.25054 29.3559 8.18528 29.5327C9.17054 29.7095 10.5853 29.798 12 29.798C13.4147 29.798 14.8295 29.7095 15.8148 29.5327C16.7495 29.3559 17.0526 29.1916 17.659 28.6611C19.2632 27.259 21.7011 24.3285 22.7242 22.7369C23.2169 21.979 23.3179 21.5622 23.3811 20.6401C23.5453 18.139 23.5453 12.1769 23.3811 9.66322ZM22.4211 20.5895C22.3579 21.4232 22.2948 21.6632 21.9158 22.2443C20.9432 23.7474 18.5432 26.6401 17.0147 27.9664C16.5474 28.3706 16.4084 28.4716 15.6253 28.6232C13.7558 28.9643 10.2063 28.9643 8.33685 28.6232C7.5537 28.4843 7.41475 28.3832 6.94738 27.9664C5.43159 26.6401 3.03159 23.7474 2.04633 22.2443C1.66738 21.6632 1.60422 21.4359 1.54107 20.5895C1.37685 18.1011 1.37685 12.2274 1.54107 9.73901C1.60422 8.90532 1.66738 8.66532 2.04633 8.08427C3.01896 6.58111 5.41896 3.68848 6.94738 2.36217C7.44001 1.94532 7.57896 1.84427 8.36212 1.70532C9.29685 1.52848 10.6484 1.45269 12 1.45269C13.3516 1.45269 14.7032 1.54111 15.6379 1.70532C16.4211 1.84427 16.56 1.94532 17.0274 2.36217C18.5432 3.68848 20.9432 6.58111 21.9284 8.08427C22.3074 8.66532 22.3705 8.89269 22.4337 9.73901C22.5979 12.2148 22.5979 18.1011 22.4211 20.5895Z" fill="white"/>
<path d="M18.3917 14.5137C19.9454 16.5474 20.3244 19.7305 18.8212 22.3832C17.6086 24.5305 15.2591 25.9453 12.657 25.8947C10.0044 25.8442 8.45069 24.8084 5.63384 22.8505C5.06542 22.4589 4.83805 22.4211 5.22963 22.1179C6.51805 21.1326 8.097 20.7411 8.45069 20.64C8.55174 20.6147 8.88016 20.5389 9.12016 20.3621C9.46121 20.1095 9.41069 19.5789 9.08227 19.2379C8.98121 19.1368 8.86753 19.0232 8.70332 18.8968C7.18753 17.7221 2.52648 15.7768 4.48437 8.80421C4.64858 8.24842 4.72437 8.07158 5.05279 8.43789C5.41911 8.82947 5.86121 9.28421 6.26542 9.66316C6.50542 9.89053 6.56858 10.0926 6.66963 10.3579C6.70753 10.4589 6.80858 10.5221 6.90963 10.5221C7.08648 10.5221 7.21279 10.3326 7.14963 10.1684C6.96016 9.68842 7.06121 9.13263 7.11174 8.90526C7.33911 7.99579 7.54121 7.46526 7.62963 7.30105C7.79384 6.98526 7.95805 7.25053 8.08437 7.41474C10.5096 10.7747 11.8991 11.8737 13.5917 13.8695C14.7033 15.1705 14.6528 16.6358 14.8296 17.7979C14.9054 18.2653 15.057 19.4653 16.1559 19.6674C16.737 19.7684 17.3307 19.5537 17.6591 19.0484C18.2402 18.1642 18.2023 16.7495 17.1791 15.2337C15.8907 13.3389 13.4023 11.3179 12.1391 9.44842C9.39805 5.38105 13.8696 2.56421 16.2065 5.36842C17.1159 6.46737 16.4844 7.47789 17.5202 8.91789C17.6212 9.06947 17.596 9.33474 17.3812 9.37263C17.2423 9.39789 17.1159 9.3221 17.0528 9.25895C16.5602 8.80421 16.3581 8.41263 16.0675 8.18526C15.676 7.86947 15.1075 7.73053 14.6275 7.14947C14.337 6.78316 14.2359 6.45474 14.097 6.2021C13.8065 5.65895 13.3138 5.76 13.1623 5.82316C12.5938 6.05053 12.1644 6.96 12.8465 8.28632C13.9454 10.3958 16.636 12.2021 18.3917 14.5137Z" fill="white"/>
</svg>
